<svg xmlns="http://www.w3.org/2000/svg" xmlns:xlink="http://www.w3.org/1999/xlink" version="1.1" id="Layer_1" x="0px" y="0px" width="100px" height="100px" viewBox="0 0 100 100" enable-background="new 0 0 100 100" xml:space="preserve">
<path fill-rule="evenodd" clip-rule="evenodd" d="M78.657,79.892H62.234c0,0,0,17.306,0,12.445c0-0.128,0,3.977-4.005,2.483  C47.178,90.699,21.177,81.26,21.177,81.26s-4.106-1.368-4.106-4.105c0-4.106,0-65.049,0-65.049s0,0.726,0-3.379  s4.106-4.105,4.106-4.105c1.369,0,1.976,0,3.498,0h53.982c6.843,0,6.843,6.843,6.843,6.843v61.585  C85.5,79.892,78.657,79.892,78.657,79.892z M47.181,52.52c0,0,0,4.106,4.104,4.106c4.106,0,4.106-4.106,4.106-4.106v-6.843  c0-4.105-4.106-4.105-4.106-4.101c0,0.003-4.104-0.004-4.104,4.101V52.52z M77.289,16.938c0-5.475-5.475-5.475-5.475-5.475H37.601  c0,0,13.611,5.294,20.599,8.011c4.035,1.569,4.035,5.674,4.035,5.674c0-12.059,0,46.532,0,46.532h9.58  c5.475,0,5.475-5.476,5.475-5.476V16.938z"/>
</svg>