<svg xmlns="http://www.w3.org/2000/svg" xmlns:xlink="http://www.w3.org/1999/xlink" version="1.1" id="Your_Icon" x="0px" y="0px" width="100px" height="100px" viewBox="0 0 100 100" enable-background="new 0 0 100 100" xml:space="preserve">
<g>
	<g>
		<g>
		</g>
	</g>
	<g>
	</g>
</g>
<path fill="#000000" d="M24.233,44.365c-3.922,0-7.114,3.191-7.114,7.114c0,3.924,3.191,7.116,7.114,7.116s7.114-3.192,7.114-7.116  C31.347,47.556,28.155,44.365,24.233,44.365z M24.233,54.595c-1.717,0-3.114-1.397-3.114-3.116c0-1.717,1.397-3.114,3.114-3.114  s3.114,1.397,3.114,3.114C27.347,53.197,25.95,54.595,24.233,54.595z M41.492,44.365c-3.924,0-7.116,3.191-7.116,7.114  c0,3.924,3.192,7.116,7.116,7.116c3.922,0,7.114-3.192,7.114-7.116C48.605,47.556,45.414,44.365,41.492,44.365z M41.492,54.595  c-1.718,0-3.116-1.397-3.116-3.116c0-1.717,1.398-3.114,3.116-3.114c1.717,0,3.114,1.397,3.114,3.114  C44.605,53.197,43.208,54.595,41.492,54.595z M58.748,44.365c-3.924,0-7.115,3.191-7.115,7.114c0,3.924,3.191,7.116,7.115,7.116  s7.116-3.192,7.116-7.116C65.864,47.556,62.672,44.365,58.748,44.365z M58.748,54.595c-1.718,0-3.115-1.397-3.115-3.116  c0-1.717,1.397-3.114,3.115-3.114c1.719,0,3.116,1.397,3.116,3.114C61.864,53.197,60.467,54.595,58.748,54.595z M97.009,43.617  c0-14.556-17.271-26.398-38.5-26.398c-11.343,0-21.985,3.369-29.304,9.248C13.984,29.991,2.991,39.868,2.991,51.479  c0,7.475,4.553,14.541,12.537,19.524c-0.049,3.091-0.789,6.072-2.2,8.867c-0.313,0.619-0.325,1.356,0.04,1.948  c0.364,0.592,0.966,0.951,1.661,0.951c0.057,0.005,0.199,0.012,0.256,0.012c5.829,0,11.418-2.075,15.854-5.863  c3.362,0.638,6.84,0.96,10.354,0.96c11.034,0,20.991-3.204,28.017-8.321c4.327,3.458,9.659,5.363,15.206,5.363  c0.079,0,0.159-0.004,0.173-0.009c0.694,0,1.34-0.36,1.703-0.952c0.364-0.592,0.396-1.33,0.082-1.949  c-1.412-2.795-2.151-5.776-2.2-8.867C92.455,58.156,97.009,51.09,97.009,43.617z M30.962,72.805  c-0.633-0.137-1.295,0.049-1.771,0.492c-3.08,2.86-6.899,4.682-10.979,5.273c0.876-2.538,1.318-5.183,1.318-7.896  c0-0.212-0.012-0.419-0.026-0.627l-0.016-0.27c-0.025-0.684-0.399-1.308-0.99-1.653C11.186,63.854,6.991,57.787,6.991,51.479  c0-9.891,9.93-18.299,23.654-21.259c0.015-0.004,0.03-0.005,0.045-0.01c3.4-0.729,7.029-1.13,10.801-1.13  c12.768,0,23.929,4.53,29.894,11.241c0.114,0.184,0.259,0.335,0.415,0.468c2.016,2.4,3.365,5.066,3.911,7.892  c0.004,0.028,0.011,0.057,0.017,0.085c0.166,0.89,0.262,1.794,0.262,2.713c0,5.236-2.789,10.055-7.442,13.872  c-0.15,0.095-0.294,0.202-0.419,0.339c-0.006,0.006-0.009,0.013-0.014,0.019c-6.333,4.986-15.916,8.17-26.624,8.17  C37.905,73.878,34.363,73.517,30.962,72.805z M78.688,44.678c-0.546-1.402-1.26-2.756-2.119-4.057  c1.327,0.356,2.312,1.559,2.312,2.997C78.881,43.989,78.81,44.344,78.688,44.678z M81.502,60.264  c-0.592,0.346-0.966,0.971-0.99,1.656l-0.016,0.271c-0.014,0.206-0.026,0.412-0.026,0.622c0,2.714,0.442,5.358,1.318,7.896  c-3.297-0.479-6.421-1.775-9.125-3.763c4.603-4.351,7.327-9.693,7.327-15.467c0-0.696-0.052-1.383-0.129-2.065  c1.865-1.312,3.02-3.44,3.02-5.795c0-3.923-3.191-7.115-7.113-7.115c-0.76,0-1.507,0.136-2.223,0.374  C66.639,29.771,54.851,25.08,41.492,25.08c-0.805,0-1.602,0.022-2.395,0.056c5.659-2.528,12.372-3.917,19.412-3.917  c19.023,0,34.5,10.048,34.5,22.398C93.009,49.924,88.814,55.991,81.502,60.264z"/>
</svg>