<svg xmlns="http://www.w3.org/2000/svg" xmlns:xlink="http://www.w3.org/1999/xlink" version="1.1" id="Layer_1" x="0px" y="0px" viewBox="0 0 100 100" enable-background="new 0 0 100 100" xml:space="preserve" height="100px" width="100px">
<g>
	<g id="XMLID_1_">
		<g>
			<path d="M72.3,65.9c1,5.1,1.3,10.8-2.7,14.7c-3.2,3.2-7.9,4.5-12.3,5.1c-2.9,0.4-5.8,0.4-8.7,0.4c-3.5,0-7.1-0.4-10.4-1.3     c-4.3-1.2-8.6-3.6-10.3-7.9c-1-2.5-0.9-5.1-0.7-7.7c0.3-2.8,0.9-5.6,1.8-8.2c1.8-5.3,4.7-10.4,8.9-14.1c0.9-0.8,2-1.3,2-2.7     c0-1.5-1.1-2.4-1.9-3.5c-1.5-2.2-2.3-4.9-2.4-7.6c-0.2-7.9,6.4-14.7,14.3-14.7c9.9,0,16.9,10.2,13.4,19.5     c-0.5,1.2-1.1,2.3-1.8,3.3c-0.8,1.1-1.8,2.1-1.5,3.6c0.3,1.2,1.6,1.8,2.4,2.6c1.1,1,2,2.1,2.9,3.2C69,54.9,71.2,60.3,72.3,65.9z"/>
		</g>
	</g>
</g>
</svg>